<mxfile host="app.diagrams.net" agent="Mozilla/5.0 (Windows NT 10.0; Win64; x64) AppleWebKit/537.36 (KHTML, like Gecko) Chrome/127.0.0.0 Safari/537.36" version="24.7.6">
  <diagram id="C5RBs43oDa-KdzZeNtuy" name="Page-1">
    <mxGraphModel dx="1980" dy="857" grid="1" gridSize="10" guides="1" tooltips="1" connect="1" arrows="1" fold="1" page="1" pageScale="1" pageWidth="1169" pageHeight="827" background="#ffffff" math="0" shadow="0">
      <root>
        <mxCell id="WIyWlLk6GJQsqaUBKTNV-0" />
        <mxCell id="WIyWlLk6GJQsqaUBKTNV-1" parent="WIyWlLk6GJQsqaUBKTNV-0" />
        <mxCell id="0S4X1mv01g6gWda34Fhh-0" value="Member" style="shape=table;startSize=30;container=1;collapsible=1;childLayout=tableLayout;fixedRows=1;rowLines=0;fontStyle=1;align=center;resizeLast=1;html=1;whiteSpace=wrap;swimlaneLine=1;verticalAlign=middle;fontFamily=Helvetica;fontSize=12;fillColor=none;rounded=1;labelBackgroundColor=none;strokeColor=#0F8B8D;fontColor=#143642;" parent="WIyWlLk6GJQsqaUBKTNV-1" vertex="1">
          <mxGeometry x="570" y="200" width="190" height="120" as="geometry" />
        </mxCell>
        <mxCell id="0S4X1mv01g6gWda34Fhh-4" value="" style="shape=tableRow;horizontal=0;startSize=0;swimlaneHead=0;swimlaneBody=0;fillColor=none;collapsible=0;dropTarget=0;points=[[0,0.5],[1,0.5]];portConstraint=eastwest;top=0;left=0;right=0;bottom=1;html=1;swimlaneLine=1;align=center;verticalAlign=middle;fontFamily=Helvetica;fontSize=12;fontStyle=1;labelBackgroundColor=none;strokeColor=#0F8B8D;fontColor=#143642;rounded=1;" parent="0S4X1mv01g6gWda34Fhh-0" vertex="1">
          <mxGeometry y="30" width="190" height="30" as="geometry" />
        </mxCell>
        <mxCell id="0S4X1mv01g6gWda34Fhh-5" value="PK,FK1" style="shape=partialRectangle;connectable=0;fillColor=none;top=0;left=0;bottom=0;right=0;fontStyle=1;overflow=hidden;html=1;whiteSpace=wrap;swimlaneLine=1;align=center;verticalAlign=middle;fontFamily=Helvetica;fontSize=12;labelBackgroundColor=none;strokeColor=#0F8B8D;fontColor=#143642;rounded=1;" parent="0S4X1mv01g6gWda34Fhh-4" vertex="1">
          <mxGeometry width="60" height="30" as="geometry">
            <mxRectangle width="60" height="30" as="alternateBounds" />
          </mxGeometry>
        </mxCell>
        <mxCell id="0S4X1mv01g6gWda34Fhh-6" value="Id" style="shape=partialRectangle;connectable=0;fillColor=none;top=0;left=0;bottom=0;right=0;align=center;spacingLeft=6;fontStyle=1;overflow=hidden;html=1;whiteSpace=wrap;swimlaneLine=1;verticalAlign=middle;fontFamily=Helvetica;fontSize=12;labelBackgroundColor=none;strokeColor=#0F8B8D;fontColor=#143642;rounded=1;" parent="0S4X1mv01g6gWda34Fhh-4" vertex="1">
          <mxGeometry x="60" width="130" height="30" as="geometry">
            <mxRectangle width="130" height="30" as="alternateBounds" />
          </mxGeometry>
        </mxCell>
        <mxCell id="0S4X1mv01g6gWda34Fhh-7" value="" style="shape=tableRow;horizontal=0;startSize=0;swimlaneHead=0;swimlaneBody=0;fillColor=none;collapsible=0;dropTarget=0;points=[[0,0.5],[1,0.5]];portConstraint=eastwest;top=0;left=0;right=0;bottom=0;html=1;swimlaneLine=1;align=center;verticalAlign=middle;fontFamily=Helvetica;fontSize=12;fontStyle=1;labelBackgroundColor=none;strokeColor=#0F8B8D;fontColor=#143642;rounded=1;" parent="0S4X1mv01g6gWda34Fhh-0" vertex="1">
          <mxGeometry y="60" width="190" height="30" as="geometry" />
        </mxCell>
        <mxCell id="0S4X1mv01g6gWda34Fhh-8" value="" style="shape=partialRectangle;connectable=0;fillColor=none;top=0;left=0;bottom=0;right=0;editable=1;overflow=hidden;html=1;whiteSpace=wrap;swimlaneLine=1;align=center;verticalAlign=middle;fontFamily=Helvetica;fontSize=12;fontStyle=1;labelBackgroundColor=none;strokeColor=#0F8B8D;fontColor=#143642;rounded=1;" parent="0S4X1mv01g6gWda34Fhh-7" vertex="1">
          <mxGeometry width="60" height="30" as="geometry">
            <mxRectangle width="60" height="30" as="alternateBounds" />
          </mxGeometry>
        </mxCell>
        <mxCell id="0S4X1mv01g6gWda34Fhh-9" value="" style="shape=partialRectangle;connectable=0;fillColor=none;top=0;left=0;bottom=0;right=0;align=center;spacingLeft=6;overflow=hidden;html=1;whiteSpace=wrap;swimlaneLine=1;verticalAlign=middle;fontFamily=Helvetica;fontSize=12;fontStyle=1;labelBackgroundColor=none;strokeColor=#0F8B8D;fontColor=#143642;rounded=1;" parent="0S4X1mv01g6gWda34Fhh-7" vertex="1">
          <mxGeometry x="60" width="130" height="30" as="geometry">
            <mxRectangle width="130" height="30" as="alternateBounds" />
          </mxGeometry>
        </mxCell>
        <mxCell id="0S4X1mv01g6gWda34Fhh-10" value="" style="shape=tableRow;horizontal=0;startSize=0;swimlaneHead=0;swimlaneBody=0;fillColor=none;collapsible=0;dropTarget=0;points=[[0,0.5],[1,0.5]];portConstraint=eastwest;top=0;left=0;right=0;bottom=0;html=1;swimlaneLine=1;align=center;verticalAlign=middle;fontFamily=Helvetica;fontSize=12;fontStyle=1;labelBackgroundColor=none;strokeColor=#0F8B8D;fontColor=#143642;rounded=1;" parent="0S4X1mv01g6gWda34Fhh-0" vertex="1">
          <mxGeometry y="90" width="190" height="30" as="geometry" />
        </mxCell>
        <mxCell id="0S4X1mv01g6gWda34Fhh-11" value="" style="shape=partialRectangle;connectable=0;fillColor=none;top=0;left=0;bottom=0;right=0;editable=1;overflow=hidden;html=1;whiteSpace=wrap;swimlaneLine=1;align=center;verticalAlign=middle;fontFamily=Helvetica;fontSize=12;fontStyle=1;labelBackgroundColor=none;strokeColor=#0F8B8D;fontColor=#143642;rounded=1;" parent="0S4X1mv01g6gWda34Fhh-10" vertex="1">
          <mxGeometry width="60" height="30" as="geometry">
            <mxRectangle width="60" height="30" as="alternateBounds" />
          </mxGeometry>
        </mxCell>
        <mxCell id="0S4X1mv01g6gWda34Fhh-12" value="" style="shape=partialRectangle;connectable=0;fillColor=none;top=0;left=0;bottom=0;right=0;align=center;spacingLeft=6;overflow=hidden;html=1;whiteSpace=wrap;swimlaneLine=1;verticalAlign=middle;fontFamily=Helvetica;fontSize=12;fontStyle=1;labelBackgroundColor=none;strokeColor=#0F8B8D;fontColor=#143642;rounded=1;" parent="0S4X1mv01g6gWda34Fhh-10" vertex="1">
          <mxGeometry x="60" width="130" height="30" as="geometry">
            <mxRectangle width="130" height="30" as="alternateBounds" />
          </mxGeometry>
        </mxCell>
        <mxCell id="0S4X1mv01g6gWda34Fhh-13" value="Cell" style="shape=table;startSize=30;container=1;collapsible=1;childLayout=tableLayout;fixedRows=1;rowLines=0;fontStyle=1;align=center;resizeLast=1;html=1;whiteSpace=wrap;swimlaneLine=1;verticalAlign=middle;fontFamily=Helvetica;fontSize=12;fillColor=none;rounded=1;labelBackgroundColor=none;strokeColor=#0F8B8D;fontColor=#143642;" parent="WIyWlLk6GJQsqaUBKTNV-1" vertex="1">
          <mxGeometry x="-20" y="150" width="180" height="120" as="geometry" />
        </mxCell>
        <mxCell id="0S4X1mv01g6gWda34Fhh-17" value="" style="shape=tableRow;horizontal=0;startSize=0;swimlaneHead=0;swimlaneBody=0;fillColor=none;collapsible=0;dropTarget=0;points=[[0,0.5],[1,0.5]];portConstraint=eastwest;top=0;left=0;right=0;bottom=1;html=1;swimlaneLine=1;align=center;verticalAlign=middle;fontFamily=Helvetica;fontSize=12;fontStyle=1;labelBackgroundColor=none;strokeColor=#0F8B8D;fontColor=#143642;rounded=1;" parent="0S4X1mv01g6gWda34Fhh-13" vertex="1">
          <mxGeometry y="30" width="180" height="30" as="geometry" />
        </mxCell>
        <mxCell id="0S4X1mv01g6gWda34Fhh-18" value="PK,FK1" style="shape=partialRectangle;connectable=0;fillColor=none;top=0;left=0;bottom=0;right=0;fontStyle=1;overflow=hidden;html=1;whiteSpace=wrap;swimlaneLine=1;align=center;verticalAlign=middle;fontFamily=Helvetica;fontSize=12;labelBackgroundColor=none;strokeColor=#0F8B8D;fontColor=#143642;rounded=1;" parent="0S4X1mv01g6gWda34Fhh-17" vertex="1">
          <mxGeometry width="60" height="30" as="geometry">
            <mxRectangle width="60" height="30" as="alternateBounds" />
          </mxGeometry>
        </mxCell>
        <mxCell id="0S4X1mv01g6gWda34Fhh-19" value="CellId" style="shape=partialRectangle;connectable=0;fillColor=none;top=0;left=0;bottom=0;right=0;align=center;spacingLeft=6;fontStyle=1;overflow=hidden;html=1;whiteSpace=wrap;swimlaneLine=1;verticalAlign=middle;fontFamily=Helvetica;fontSize=12;labelBackgroundColor=none;strokeColor=#0F8B8D;fontColor=#143642;rounded=1;" parent="0S4X1mv01g6gWda34Fhh-17" vertex="1">
          <mxGeometry x="60" width="120" height="30" as="geometry">
            <mxRectangle width="120" height="30" as="alternateBounds" />
          </mxGeometry>
        </mxCell>
        <mxCell id="0S4X1mv01g6gWda34Fhh-20" value="" style="shape=tableRow;horizontal=0;startSize=0;swimlaneHead=0;swimlaneBody=0;fillColor=none;collapsible=0;dropTarget=0;points=[[0,0.5],[1,0.5]];portConstraint=eastwest;top=0;left=0;right=0;bottom=0;html=1;swimlaneLine=1;align=center;verticalAlign=middle;fontFamily=Helvetica;fontSize=12;fontStyle=1;labelBackgroundColor=none;strokeColor=#0F8B8D;fontColor=#143642;rounded=1;" parent="0S4X1mv01g6gWda34Fhh-13" vertex="1">
          <mxGeometry y="60" width="180" height="30" as="geometry" />
        </mxCell>
        <mxCell id="0S4X1mv01g6gWda34Fhh-21" value="" style="shape=partialRectangle;connectable=0;fillColor=none;top=0;left=0;bottom=0;right=0;editable=1;overflow=hidden;html=1;whiteSpace=wrap;swimlaneLine=1;align=center;verticalAlign=middle;fontFamily=Helvetica;fontSize=12;fontStyle=1;labelBackgroundColor=none;strokeColor=#0F8B8D;fontColor=#143642;rounded=1;" parent="0S4X1mv01g6gWda34Fhh-20" vertex="1">
          <mxGeometry width="60" height="30" as="geometry">
            <mxRectangle width="60" height="30" as="alternateBounds" />
          </mxGeometry>
        </mxCell>
        <mxCell id="0S4X1mv01g6gWda34Fhh-22" value="" style="shape=partialRectangle;connectable=0;fillColor=none;top=0;left=0;bottom=0;right=0;align=center;spacingLeft=6;overflow=hidden;html=1;whiteSpace=wrap;swimlaneLine=1;verticalAlign=middle;fontFamily=Helvetica;fontSize=12;fontStyle=1;labelBackgroundColor=none;strokeColor=#0F8B8D;fontColor=#143642;rounded=1;" parent="0S4X1mv01g6gWda34Fhh-20" vertex="1">
          <mxGeometry x="60" width="120" height="30" as="geometry">
            <mxRectangle width="120" height="30" as="alternateBounds" />
          </mxGeometry>
        </mxCell>
        <mxCell id="0S4X1mv01g6gWda34Fhh-23" value="" style="shape=tableRow;horizontal=0;startSize=0;swimlaneHead=0;swimlaneBody=0;fillColor=none;collapsible=0;dropTarget=0;points=[[0,0.5],[1,0.5]];portConstraint=eastwest;top=0;left=0;right=0;bottom=0;html=1;swimlaneLine=1;align=center;verticalAlign=middle;fontFamily=Helvetica;fontSize=12;fontStyle=1;labelBackgroundColor=none;strokeColor=#0F8B8D;fontColor=#143642;rounded=1;" parent="0S4X1mv01g6gWda34Fhh-13" vertex="1">
          <mxGeometry y="90" width="180" height="30" as="geometry" />
        </mxCell>
        <mxCell id="0S4X1mv01g6gWda34Fhh-24" value="" style="shape=partialRectangle;connectable=0;fillColor=none;top=0;left=0;bottom=0;right=0;editable=1;overflow=hidden;html=1;whiteSpace=wrap;swimlaneLine=1;align=center;verticalAlign=middle;fontFamily=Helvetica;fontSize=12;fontStyle=1;labelBackgroundColor=none;strokeColor=#0F8B8D;fontColor=#143642;rounded=1;" parent="0S4X1mv01g6gWda34Fhh-23" vertex="1">
          <mxGeometry width="60" height="30" as="geometry">
            <mxRectangle width="60" height="30" as="alternateBounds" />
          </mxGeometry>
        </mxCell>
        <mxCell id="0S4X1mv01g6gWda34Fhh-25" value="" style="shape=partialRectangle;connectable=0;fillColor=none;top=0;left=0;bottom=0;right=0;align=center;spacingLeft=6;overflow=hidden;html=1;whiteSpace=wrap;swimlaneLine=1;verticalAlign=middle;fontFamily=Helvetica;fontSize=12;fontStyle=1;labelBackgroundColor=none;strokeColor=#0F8B8D;fontColor=#143642;rounded=1;" parent="0S4X1mv01g6gWda34Fhh-23" vertex="1">
          <mxGeometry x="60" width="120" height="30" as="geometry">
            <mxRectangle width="120" height="30" as="alternateBounds" />
          </mxGeometry>
        </mxCell>
        <mxCell id="0S4X1mv01g6gWda34Fhh-26" value="DetectCell" style="shape=table;startSize=30;container=1;collapsible=1;childLayout=tableLayout;fixedRows=1;rowLines=0;fontStyle=1;align=center;resizeLast=1;html=1;whiteSpace=wrap;swimlaneLine=1;verticalAlign=middle;fontFamily=Helvetica;fontSize=12;fillColor=none;rounded=1;shadow=0;swimlaneFillColor=none;labelBackgroundColor=none;strokeColor=#0F8B8D;fontColor=#143642;" parent="WIyWlLk6GJQsqaUBKTNV-1" vertex="1">
          <mxGeometry x="220" y="230" width="180" height="118" as="geometry" />
        </mxCell>
        <mxCell id="0S4X1mv01g6gWda34Fhh-27" value="" style="shape=tableRow;horizontal=0;startSize=0;swimlaneHead=0;swimlaneBody=0;fillColor=none;collapsible=0;dropTarget=0;points=[[0,0.5],[1,0.5]];portConstraint=eastwest;top=0;left=0;right=0;bottom=0;html=1;swimlaneLine=1;align=center;verticalAlign=middle;fontFamily=Helvetica;fontSize=12;fontStyle=1;swimlaneFillColor=none;labelBackgroundColor=none;strokeColor=#0F8B8D;fontColor=#143642;rounded=1;" parent="0S4X1mv01g6gWda34Fhh-26" vertex="1">
          <mxGeometry y="30" width="180" height="28" as="geometry" />
        </mxCell>
        <mxCell id="0S4X1mv01g6gWda34Fhh-28" value="PK,FK1" style="shape=partialRectangle;connectable=0;fillColor=none;top=0;left=0;bottom=0;right=0;fontStyle=1;overflow=hidden;html=1;whiteSpace=wrap;swimlaneLine=1;align=center;verticalAlign=middle;fontFamily=Helvetica;fontSize=12;swimlaneFillColor=none;labelBackgroundColor=none;strokeColor=#0F8B8D;fontColor=#143642;rounded=1;" parent="0S4X1mv01g6gWda34Fhh-27" vertex="1">
          <mxGeometry width="60" height="28" as="geometry">
            <mxRectangle width="60" height="28" as="alternateBounds" />
          </mxGeometry>
        </mxCell>
        <mxCell id="0S4X1mv01g6gWda34Fhh-29" value="Id" style="shape=partialRectangle;connectable=0;fillColor=none;top=0;left=0;bottom=0;right=0;align=center;spacingLeft=6;fontStyle=1;overflow=hidden;html=1;whiteSpace=wrap;swimlaneLine=1;verticalAlign=middle;fontFamily=Helvetica;fontSize=12;swimlaneFillColor=none;labelBackgroundColor=none;strokeColor=#0F8B8D;fontColor=#143642;rounded=1;" parent="0S4X1mv01g6gWda34Fhh-27" vertex="1">
          <mxGeometry x="60" width="120" height="28" as="geometry">
            <mxRectangle width="120" height="28" as="alternateBounds" />
          </mxGeometry>
        </mxCell>
        <mxCell id="0S4X1mv01g6gWda34Fhh-33" value="" style="shape=tableRow;horizontal=0;startSize=0;swimlaneHead=0;swimlaneBody=0;fillColor=none;collapsible=0;dropTarget=0;points=[[0,0.5],[1,0.5]];portConstraint=eastwest;top=0;left=0;right=0;bottom=0;html=1;swimlaneLine=1;align=center;verticalAlign=middle;fontFamily=Helvetica;fontSize=12;fontStyle=1;swimlaneFillColor=none;labelBackgroundColor=none;strokeColor=#0F8B8D;fontColor=#143642;rounded=1;" parent="0S4X1mv01g6gWda34Fhh-26" vertex="1">
          <mxGeometry y="58" width="180" height="30" as="geometry" />
        </mxCell>
        <mxCell id="0S4X1mv01g6gWda34Fhh-34" value="" style="shape=partialRectangle;connectable=0;fillColor=none;top=0;left=0;bottom=0;right=0;editable=1;overflow=hidden;html=1;whiteSpace=wrap;swimlaneLine=1;align=center;verticalAlign=middle;fontFamily=Helvetica;fontSize=12;fontStyle=1;swimlaneFillColor=none;labelBackgroundColor=none;strokeColor=#0F8B8D;fontColor=#143642;rounded=1;" parent="0S4X1mv01g6gWda34Fhh-33" vertex="1">
          <mxGeometry width="60" height="30" as="geometry">
            <mxRectangle width="60" height="30" as="alternateBounds" />
          </mxGeometry>
        </mxCell>
        <mxCell id="0S4X1mv01g6gWda34Fhh-35" value="" style="shape=partialRectangle;connectable=0;fillColor=none;top=0;left=0;bottom=0;right=0;align=center;spacingLeft=6;overflow=hidden;html=1;whiteSpace=wrap;swimlaneLine=1;verticalAlign=middle;fontFamily=Helvetica;fontSize=12;fontStyle=1;swimlaneFillColor=none;labelBackgroundColor=none;strokeColor=#0F8B8D;fontColor=#143642;rounded=1;" parent="0S4X1mv01g6gWda34Fhh-33" vertex="1">
          <mxGeometry x="60" width="120" height="30" as="geometry">
            <mxRectangle width="120" height="30" as="alternateBounds" />
          </mxGeometry>
        </mxCell>
        <mxCell id="0S4X1mv01g6gWda34Fhh-36" value="" style="shape=tableRow;horizontal=0;startSize=0;swimlaneHead=0;swimlaneBody=0;fillColor=none;collapsible=0;dropTarget=0;points=[[0,0.5],[1,0.5]];portConstraint=eastwest;top=0;left=0;right=0;bottom=0;html=1;swimlaneLine=1;align=center;verticalAlign=middle;fontFamily=Helvetica;fontSize=12;fontStyle=1;swimlaneFillColor=none;labelBackgroundColor=none;strokeColor=#0F8B8D;fontColor=#143642;rounded=1;" parent="0S4X1mv01g6gWda34Fhh-26" vertex="1">
          <mxGeometry y="88" width="180" height="30" as="geometry" />
        </mxCell>
        <mxCell id="0S4X1mv01g6gWda34Fhh-37" value="" style="shape=partialRectangle;connectable=0;fillColor=none;top=0;left=0;bottom=0;right=0;editable=1;overflow=hidden;html=1;whiteSpace=wrap;swimlaneLine=1;align=center;verticalAlign=middle;fontFamily=Helvetica;fontSize=12;fontStyle=1;swimlaneFillColor=none;labelBackgroundColor=none;strokeColor=#0F8B8D;fontColor=#143642;rounded=1;" parent="0S4X1mv01g6gWda34Fhh-36" vertex="1">
          <mxGeometry width="60" height="30" as="geometry">
            <mxRectangle width="60" height="30" as="alternateBounds" />
          </mxGeometry>
        </mxCell>
        <mxCell id="0S4X1mv01g6gWda34Fhh-38" value="" style="shape=partialRectangle;connectable=0;fillColor=none;top=0;left=0;bottom=0;right=0;align=center;spacingLeft=6;overflow=hidden;html=1;whiteSpace=wrap;swimlaneLine=1;verticalAlign=middle;fontFamily=Helvetica;fontSize=12;fontStyle=1;swimlaneFillColor=none;labelBackgroundColor=none;strokeColor=#0F8B8D;fontColor=#143642;rounded=1;" parent="0S4X1mv01g6gWda34Fhh-36" vertex="1">
          <mxGeometry x="60" width="120" height="30" as="geometry">
            <mxRectangle width="120" height="30" as="alternateBounds" />
          </mxGeometry>
        </mxCell>
        <mxCell id="0S4X1mv01g6gWda34Fhh-39" value="MyCustomizeDifficulty" style="shape=table;startSize=30;container=1;collapsible=1;childLayout=tableLayout;fixedRows=1;rowLines=0;fontStyle=1;align=center;resizeLast=1;html=1;whiteSpace=wrap;rounded=1;shadow=0;swimlaneFillColor=none;swimlaneLine=1;verticalAlign=middle;fontFamily=Helvetica;fontSize=12;fillColor=none;labelBackgroundColor=none;strokeColor=#0F8B8D;fontColor=#143642;" parent="WIyWlLk6GJQsqaUBKTNV-1" vertex="1">
          <mxGeometry x="550" y="450" width="250" height="270" as="geometry" />
        </mxCell>
        <mxCell id="0S4X1mv01g6gWda34Fhh-40" value="" style="shape=tableRow;horizontal=0;startSize=0;swimlaneHead=0;swimlaneBody=0;fillColor=none;collapsible=0;dropTarget=0;points=[[0,0.5],[1,0.5]];portConstraint=eastwest;top=0;left=0;right=0;bottom=0;html=1;swimlaneLine=1;align=center;verticalAlign=middle;fontFamily=Helvetica;fontSize=12;fontStyle=1;labelBackgroundColor=none;strokeColor=#0F8B8D;fontColor=#143642;rounded=1;" parent="0S4X1mv01g6gWda34Fhh-39" vertex="1">
          <mxGeometry y="30" width="250" height="30" as="geometry" />
        </mxCell>
        <mxCell id="0S4X1mv01g6gWda34Fhh-41" value="PK,FK1" style="shape=partialRectangle;connectable=0;fillColor=none;top=0;left=0;bottom=0;right=0;fontStyle=1;overflow=hidden;html=1;whiteSpace=wrap;swimlaneLine=1;align=center;verticalAlign=middle;fontFamily=Helvetica;fontSize=12;labelBackgroundColor=none;strokeColor=#0F8B8D;fontColor=#143642;rounded=1;" parent="0S4X1mv01g6gWda34Fhh-40" vertex="1">
          <mxGeometry width="60" height="30" as="geometry">
            <mxRectangle width="60" height="30" as="alternateBounds" />
          </mxGeometry>
        </mxCell>
        <mxCell id="0S4X1mv01g6gWda34Fhh-42" value="MemberId" style="shape=partialRectangle;connectable=0;fillColor=none;top=0;left=0;bottom=0;right=0;align=center;spacingLeft=6;fontStyle=1;overflow=hidden;html=1;whiteSpace=wrap;swimlaneLine=1;verticalAlign=middle;fontFamily=Helvetica;fontSize=12;labelBackgroundColor=none;strokeColor=#0F8B8D;fontColor=#143642;rounded=1;" parent="0S4X1mv01g6gWda34Fhh-40" vertex="1">
          <mxGeometry x="60" width="190" height="30" as="geometry">
            <mxRectangle width="190" height="30" as="alternateBounds" />
          </mxGeometry>
        </mxCell>
        <mxCell id="0S4X1mv01g6gWda34Fhh-43" value="" style="shape=tableRow;horizontal=0;startSize=0;swimlaneHead=0;swimlaneBody=0;fillColor=none;collapsible=0;dropTarget=0;points=[[0,0.5],[1,0.5]];portConstraint=eastwest;top=0;left=0;right=0;bottom=1;html=1;swimlaneLine=1;align=center;verticalAlign=middle;fontFamily=Helvetica;fontSize=12;fontStyle=1;labelBackgroundColor=none;strokeColor=#0F8B8D;fontColor=#143642;rounded=1;" parent="0S4X1mv01g6gWda34Fhh-39" vertex="1">
          <mxGeometry y="60" width="250" height="30" as="geometry" />
        </mxCell>
        <mxCell id="0S4X1mv01g6gWda34Fhh-44" value="PK" style="shape=partialRectangle;connectable=0;fillColor=none;top=0;left=0;bottom=0;right=0;fontStyle=1;overflow=hidden;html=1;whiteSpace=wrap;swimlaneLine=1;align=center;verticalAlign=middle;fontFamily=Helvetica;fontSize=12;labelBackgroundColor=none;strokeColor=#0F8B8D;fontColor=#143642;rounded=1;" parent="0S4X1mv01g6gWda34Fhh-43" vertex="1">
          <mxGeometry width="60" height="30" as="geometry">
            <mxRectangle width="60" height="30" as="alternateBounds" />
          </mxGeometry>
        </mxCell>
        <mxCell id="0S4X1mv01g6gWda34Fhh-45" value="CellId" style="shape=partialRectangle;connectable=0;fillColor=none;top=0;left=0;bottom=0;right=0;align=center;spacingLeft=6;fontStyle=1;overflow=hidden;html=1;whiteSpace=wrap;swimlaneLine=1;verticalAlign=middle;fontFamily=Helvetica;fontSize=12;labelBackgroundColor=none;strokeColor=#0F8B8D;fontColor=#143642;rounded=1;" parent="0S4X1mv01g6gWda34Fhh-43" vertex="1">
          <mxGeometry x="60" width="190" height="30" as="geometry">
            <mxRectangle width="190" height="30" as="alternateBounds" />
          </mxGeometry>
        </mxCell>
        <mxCell id="fq_SOStJ_wzR6krGJ7X9-0" value="" style="shape=tableRow;horizontal=0;startSize=0;swimlaneHead=0;swimlaneBody=0;fillColor=none;collapsible=0;dropTarget=0;points=[[0,0.5],[1,0.5]];portConstraint=eastwest;top=0;left=0;right=0;bottom=1;html=1;swimlaneLine=1;align=center;verticalAlign=middle;fontFamily=Helvetica;fontSize=12;fontStyle=1;labelBackgroundColor=none;strokeColor=#0F8B8D;fontColor=#143642;rounded=1;" vertex="1" parent="0S4X1mv01g6gWda34Fhh-39">
          <mxGeometry y="90" width="250" height="30" as="geometry" />
        </mxCell>
        <mxCell id="fq_SOStJ_wzR6krGJ7X9-1" value="" style="shape=partialRectangle;connectable=0;fillColor=none;top=0;left=0;bottom=0;right=0;fontStyle=1;overflow=hidden;html=1;whiteSpace=wrap;swimlaneLine=1;align=center;verticalAlign=middle;fontFamily=Helvetica;fontSize=12;labelBackgroundColor=none;strokeColor=#0F8B8D;fontColor=#143642;rounded=1;" vertex="1" parent="fq_SOStJ_wzR6krGJ7X9-0">
          <mxGeometry width="60" height="30" as="geometry">
            <mxRectangle width="60" height="30" as="alternateBounds" />
          </mxGeometry>
        </mxCell>
        <mxCell id="fq_SOStJ_wzR6krGJ7X9-2" value="Seq" style="shape=partialRectangle;connectable=0;fillColor=none;top=0;left=0;bottom=0;right=0;align=center;spacingLeft=6;fontStyle=1;overflow=hidden;html=1;whiteSpace=wrap;swimlaneLine=1;verticalAlign=middle;fontFamily=Helvetica;fontSize=12;labelBackgroundColor=none;strokeColor=#0F8B8D;fontColor=#143642;rounded=1;" vertex="1" parent="fq_SOStJ_wzR6krGJ7X9-0">
          <mxGeometry x="60" width="190" height="30" as="geometry">
            <mxRectangle width="190" height="30" as="alternateBounds" />
          </mxGeometry>
        </mxCell>
        <mxCell id="0S4X1mv01g6gWda34Fhh-46" value="" style="shape=tableRow;horizontal=0;startSize=0;swimlaneHead=0;swimlaneBody=0;fillColor=none;collapsible=0;dropTarget=0;points=[[0,0.5],[1,0.5]];portConstraint=eastwest;top=0;left=0;right=0;bottom=0;html=1;swimlaneLine=1;align=center;verticalAlign=middle;fontFamily=Helvetica;fontSize=12;fontStyle=1;labelBackgroundColor=none;strokeColor=#0F8B8D;fontColor=#143642;rounded=1;" parent="0S4X1mv01g6gWda34Fhh-39" vertex="1">
          <mxGeometry y="120" width="250" height="30" as="geometry" />
        </mxCell>
        <mxCell id="0S4X1mv01g6gWda34Fhh-47" value="" style="shape=partialRectangle;connectable=0;fillColor=none;top=0;left=0;bottom=0;right=0;editable=1;overflow=hidden;html=1;whiteSpace=wrap;swimlaneLine=1;align=center;verticalAlign=middle;fontFamily=Helvetica;fontSize=12;fontStyle=1;labelBackgroundColor=none;strokeColor=#0F8B8D;fontColor=#143642;rounded=1;" parent="0S4X1mv01g6gWda34Fhh-46" vertex="1">
          <mxGeometry width="60" height="30" as="geometry">
            <mxRectangle width="60" height="30" as="alternateBounds" />
          </mxGeometry>
        </mxCell>
        <mxCell id="0S4X1mv01g6gWda34Fhh-48" value="Difficulty" style="shape=partialRectangle;connectable=0;fillColor=none;top=0;left=0;bottom=0;right=0;align=center;spacingLeft=6;overflow=hidden;html=1;whiteSpace=wrap;swimlaneLine=1;verticalAlign=middle;fontFamily=Helvetica;fontSize=12;fontStyle=1;labelBackgroundColor=none;strokeColor=#0F8B8D;fontColor=#143642;rounded=1;" parent="0S4X1mv01g6gWda34Fhh-46" vertex="1">
          <mxGeometry x="60" width="190" height="30" as="geometry">
            <mxRectangle width="190" height="30" as="alternateBounds" />
          </mxGeometry>
        </mxCell>
        <mxCell id="0S4X1mv01g6gWda34Fhh-49" value="" style="shape=tableRow;horizontal=0;startSize=0;swimlaneHead=0;swimlaneBody=0;fillColor=none;collapsible=0;dropTarget=0;points=[[0,0.5],[1,0.5]];portConstraint=eastwest;top=0;left=0;right=0;bottom=0;html=1;swimlaneLine=1;align=center;verticalAlign=middle;fontFamily=Helvetica;fontSize=12;fontStyle=1;labelBackgroundColor=none;strokeColor=#0F8B8D;fontColor=#143642;rounded=1;" parent="0S4X1mv01g6gWda34Fhh-39" vertex="1">
          <mxGeometry y="150" width="250" height="30" as="geometry" />
        </mxCell>
        <mxCell id="0S4X1mv01g6gWda34Fhh-50" value="" style="shape=partialRectangle;connectable=0;fillColor=none;top=0;left=0;bottom=0;right=0;editable=1;overflow=hidden;html=1;whiteSpace=wrap;swimlaneLine=1;align=center;verticalAlign=middle;fontFamily=Helvetica;fontSize=12;fontStyle=1;labelBackgroundColor=none;strokeColor=#0F8B8D;fontColor=#143642;rounded=1;" parent="0S4X1mv01g6gWda34Fhh-49" vertex="1">
          <mxGeometry width="60" height="30" as="geometry">
            <mxRectangle width="60" height="30" as="alternateBounds" />
          </mxGeometry>
        </mxCell>
        <mxCell id="0S4X1mv01g6gWda34Fhh-51" value="CreatedAt" style="shape=partialRectangle;connectable=0;fillColor=none;top=0;left=0;bottom=0;right=0;align=center;spacingLeft=6;overflow=hidden;html=1;whiteSpace=wrap;swimlaneLine=1;verticalAlign=middle;fontFamily=Helvetica;fontSize=12;fontStyle=1;labelBackgroundColor=none;strokeColor=#0F8B8D;fontColor=#143642;rounded=1;" parent="0S4X1mv01g6gWda34Fhh-49" vertex="1">
          <mxGeometry x="60" width="190" height="30" as="geometry">
            <mxRectangle width="190" height="30" as="alternateBounds" />
          </mxGeometry>
        </mxCell>
        <mxCell id="0S4X1mv01g6gWda34Fhh-52" value="" style="shape=tableRow;horizontal=0;startSize=0;swimlaneHead=0;swimlaneBody=0;fillColor=none;collapsible=0;dropTarget=0;points=[[0,0.5],[1,0.5]];portConstraint=eastwest;top=0;left=0;right=0;bottom=0;html=1;swimlaneLine=1;align=center;verticalAlign=middle;fontFamily=Helvetica;fontSize=12;fontStyle=1;labelBackgroundColor=none;strokeColor=#0F8B8D;fontColor=#143642;rounded=1;" parent="0S4X1mv01g6gWda34Fhh-39" vertex="1">
          <mxGeometry y="180" width="250" height="30" as="geometry" />
        </mxCell>
        <mxCell id="0S4X1mv01g6gWda34Fhh-53" value="" style="shape=partialRectangle;connectable=0;fillColor=none;top=0;left=0;bottom=0;right=0;editable=1;overflow=hidden;html=1;whiteSpace=wrap;swimlaneLine=1;align=center;verticalAlign=middle;fontFamily=Helvetica;fontSize=12;fontStyle=1;labelBackgroundColor=none;strokeColor=#0F8B8D;fontColor=#143642;rounded=1;" parent="0S4X1mv01g6gWda34Fhh-52" vertex="1">
          <mxGeometry width="60" height="30" as="geometry">
            <mxRectangle width="60" height="30" as="alternateBounds" />
          </mxGeometry>
        </mxCell>
        <mxCell id="0S4X1mv01g6gWda34Fhh-54" value="CreatedBy" style="shape=partialRectangle;connectable=0;fillColor=none;top=0;left=0;bottom=0;right=0;align=center;spacingLeft=6;overflow=hidden;html=1;whiteSpace=wrap;swimlaneLine=1;verticalAlign=middle;fontFamily=Helvetica;fontSize=12;fontStyle=1;labelBackgroundColor=none;strokeColor=#0F8B8D;fontColor=#143642;rounded=1;" parent="0S4X1mv01g6gWda34Fhh-52" vertex="1">
          <mxGeometry x="60" width="190" height="30" as="geometry">
            <mxRectangle width="190" height="30" as="alternateBounds" />
          </mxGeometry>
        </mxCell>
        <mxCell id="0S4X1mv01g6gWda34Fhh-61" value="" style="shape=tableRow;horizontal=0;startSize=0;swimlaneHead=0;swimlaneBody=0;fillColor=none;collapsible=0;dropTarget=0;points=[[0,0.5],[1,0.5]];portConstraint=eastwest;top=0;left=0;right=0;bottom=0;html=1;swimlaneLine=1;align=center;verticalAlign=middle;fontFamily=Helvetica;fontSize=12;fontStyle=1;labelBackgroundColor=none;strokeColor=#0F8B8D;fontColor=#143642;rounded=1;" parent="0S4X1mv01g6gWda34Fhh-39" vertex="1">
          <mxGeometry y="210" width="250" height="30" as="geometry" />
        </mxCell>
        <mxCell id="0S4X1mv01g6gWda34Fhh-62" value="" style="shape=partialRectangle;connectable=0;fillColor=none;top=0;left=0;bottom=0;right=0;editable=1;overflow=hidden;html=1;whiteSpace=wrap;swimlaneLine=1;align=center;verticalAlign=middle;fontFamily=Helvetica;fontSize=12;fontStyle=1;labelBackgroundColor=none;strokeColor=#0F8B8D;fontColor=#143642;rounded=1;" parent="0S4X1mv01g6gWda34Fhh-61" vertex="1">
          <mxGeometry width="60" height="30" as="geometry">
            <mxRectangle width="60" height="30" as="alternateBounds" />
          </mxGeometry>
        </mxCell>
        <mxCell id="0S4X1mv01g6gWda34Fhh-63" value="UpdatedAt" style="shape=partialRectangle;connectable=0;fillColor=none;top=0;left=0;bottom=0;right=0;align=center;spacingLeft=6;overflow=hidden;html=1;whiteSpace=wrap;swimlaneLine=1;verticalAlign=middle;fontFamily=Helvetica;fontSize=12;fontStyle=1;labelBackgroundColor=none;strokeColor=#0F8B8D;fontColor=#143642;rounded=1;" parent="0S4X1mv01g6gWda34Fhh-61" vertex="1">
          <mxGeometry x="60" width="190" height="30" as="geometry">
            <mxRectangle width="190" height="30" as="alternateBounds" />
          </mxGeometry>
        </mxCell>
        <mxCell id="0S4X1mv01g6gWda34Fhh-58" value="" style="shape=tableRow;horizontal=0;startSize=0;swimlaneHead=0;swimlaneBody=0;fillColor=none;collapsible=0;dropTarget=0;points=[[0,0.5],[1,0.5]];portConstraint=eastwest;top=0;left=0;right=0;bottom=0;html=1;swimlaneLine=1;align=center;verticalAlign=middle;fontFamily=Helvetica;fontSize=12;fontStyle=1;labelBackgroundColor=none;strokeColor=#0F8B8D;fontColor=#143642;rounded=1;" parent="0S4X1mv01g6gWda34Fhh-39" vertex="1">
          <mxGeometry y="240" width="250" height="30" as="geometry" />
        </mxCell>
        <mxCell id="0S4X1mv01g6gWda34Fhh-59" value="" style="shape=partialRectangle;connectable=0;fillColor=none;top=0;left=0;bottom=0;right=0;editable=1;overflow=hidden;html=1;whiteSpace=wrap;swimlaneLine=1;align=center;verticalAlign=middle;fontFamily=Helvetica;fontSize=12;fontStyle=1;labelBackgroundColor=none;strokeColor=#0F8B8D;fontColor=#143642;rounded=1;" parent="0S4X1mv01g6gWda34Fhh-58" vertex="1">
          <mxGeometry width="60" height="30" as="geometry">
            <mxRectangle width="60" height="30" as="alternateBounds" />
          </mxGeometry>
        </mxCell>
        <mxCell id="0S4X1mv01g6gWda34Fhh-60" value="UpdatedBy" style="shape=partialRectangle;connectable=0;fillColor=none;top=0;left=0;bottom=0;right=0;align=center;spacingLeft=6;overflow=hidden;html=1;whiteSpace=wrap;swimlaneLine=1;verticalAlign=middle;fontFamily=Helvetica;fontSize=12;fontStyle=1;labelBackgroundColor=none;strokeColor=#0F8B8D;fontColor=#143642;rounded=1;" parent="0S4X1mv01g6gWda34Fhh-58" vertex="1">
          <mxGeometry x="60" width="190" height="30" as="geometry">
            <mxRectangle width="190" height="30" as="alternateBounds" />
          </mxGeometry>
        </mxCell>
        <mxCell id="0S4X1mv01g6gWda34Fhh-64" value="" style="edgeStyle=entityRelationEdgeStyle;fontSize=12;html=1;endArrow=ERzeroToMany;startArrow=ERmandOne;rounded=1;fontFamily=Helvetica;fontColor=default;fontStyle=1;labelBackgroundColor=none;strokeColor=#A8201A;" parent="WIyWlLk6GJQsqaUBKTNV-1" source="0S4X1mv01g6gWda34Fhh-0" target="0S4X1mv01g6gWda34Fhh-39" edge="1">
          <mxGeometry width="100" height="100" relative="1" as="geometry">
            <mxPoint x="780" y="720" as="sourcePoint" />
            <mxPoint x="880" y="620" as="targetPoint" />
          </mxGeometry>
        </mxCell>
        <mxCell id="0S4X1mv01g6gWda34Fhh-71" value="" style="edgeStyle=entityRelationEdgeStyle;fontSize=12;html=1;endArrow=ERzeroToMany;startArrow=ERmandOne;rounded=1;fontFamily=Helvetica;fontColor=default;fontStyle=1;labelBackgroundColor=none;strokeColor=#A8201A;" parent="WIyWlLk6GJQsqaUBKTNV-1" source="0S4X1mv01g6gWda34Fhh-13" target="0S4X1mv01g6gWda34Fhh-26" edge="1">
          <mxGeometry width="100" height="100" relative="1" as="geometry">
            <mxPoint x="580" y="500" as="sourcePoint" />
            <mxPoint x="680" y="400" as="targetPoint" />
          </mxGeometry>
        </mxCell>
        <mxCell id="PUyNJ7ztPnQwRcglCfCV-0" value="Question" style="shape=table;startSize=30;container=1;collapsible=1;childLayout=tableLayout;fixedRows=1;rowLines=0;fontStyle=0;align=center;resizeLast=1;html=1;whiteSpace=wrap;swimlaneLine=1;verticalAlign=middle;fontFamily=Helvetica;fontSize=12;fillColor=none;rounded=1;labelBackgroundColor=none;strokeColor=#0F8B8D;fontColor=#143642;" parent="WIyWlLk6GJQsqaUBKTNV-1" vertex="1">
          <mxGeometry x="-20" y="414" width="180" height="120" as="geometry" />
        </mxCell>
        <mxCell id="PUyNJ7ztPnQwRcglCfCV-1" value="" style="shape=tableRow;horizontal=0;startSize=0;swimlaneHead=0;swimlaneBody=0;fillColor=none;collapsible=0;dropTarget=0;points=[[0,0.5],[1,0.5]];portConstraint=eastwest;top=0;left=0;right=0;bottom=1;html=1;swimlaneLine=1;align=center;verticalAlign=middle;fontFamily=Helvetica;fontSize=12;fontStyle=1;labelBackgroundColor=none;strokeColor=#0F8B8D;fontColor=#143642;rounded=1;" parent="PUyNJ7ztPnQwRcglCfCV-0" vertex="1">
          <mxGeometry y="30" width="180" height="30" as="geometry" />
        </mxCell>
        <mxCell id="PUyNJ7ztPnQwRcglCfCV-2" value="PK,FK1" style="shape=partialRectangle;connectable=0;fillColor=none;top=0;left=0;bottom=0;right=0;fontStyle=1;overflow=hidden;html=1;whiteSpace=wrap;swimlaneLine=1;align=center;verticalAlign=middle;fontFamily=Helvetica;fontSize=12;labelBackgroundColor=none;strokeColor=#0F8B8D;fontColor=#143642;rounded=1;" parent="PUyNJ7ztPnQwRcglCfCV-1" vertex="1">
          <mxGeometry width="60" height="30" as="geometry">
            <mxRectangle width="60" height="30" as="alternateBounds" />
          </mxGeometry>
        </mxCell>
        <mxCell id="PUyNJ7ztPnQwRcglCfCV-3" value="CellId" style="shape=partialRectangle;connectable=0;fillColor=none;top=0;left=0;bottom=0;right=0;align=center;spacingLeft=6;fontStyle=1;overflow=hidden;html=1;whiteSpace=wrap;swimlaneLine=1;verticalAlign=middle;fontFamily=Helvetica;fontSize=12;labelBackgroundColor=none;strokeColor=#0F8B8D;fontColor=#143642;rounded=1;" parent="PUyNJ7ztPnQwRcglCfCV-1" vertex="1">
          <mxGeometry x="60" width="120" height="30" as="geometry">
            <mxRectangle width="120" height="30" as="alternateBounds" />
          </mxGeometry>
        </mxCell>
        <mxCell id="PUyNJ7ztPnQwRcglCfCV-4" value="" style="shape=tableRow;horizontal=0;startSize=0;swimlaneHead=0;swimlaneBody=0;fillColor=none;collapsible=0;dropTarget=0;points=[[0,0.5],[1,0.5]];portConstraint=eastwest;top=0;left=0;right=0;bottom=0;html=1;swimlaneLine=1;align=center;verticalAlign=middle;fontFamily=Helvetica;fontSize=12;fontStyle=1;labelBackgroundColor=none;strokeColor=#0F8B8D;fontColor=#143642;rounded=1;" parent="PUyNJ7ztPnQwRcglCfCV-0" vertex="1">
          <mxGeometry y="60" width="180" height="30" as="geometry" />
        </mxCell>
        <mxCell id="PUyNJ7ztPnQwRcglCfCV-5" value="" style="shape=partialRectangle;connectable=0;fillColor=none;top=0;left=0;bottom=0;right=0;editable=1;overflow=hidden;html=1;whiteSpace=wrap;swimlaneLine=1;align=center;verticalAlign=middle;fontFamily=Helvetica;fontSize=12;fontStyle=1;labelBackgroundColor=none;strokeColor=#0F8B8D;fontColor=#143642;rounded=1;" parent="PUyNJ7ztPnQwRcglCfCV-4" vertex="1">
          <mxGeometry width="60" height="30" as="geometry">
            <mxRectangle width="60" height="30" as="alternateBounds" />
          </mxGeometry>
        </mxCell>
        <mxCell id="PUyNJ7ztPnQwRcglCfCV-6" value="MaxDifficulty" style="shape=partialRectangle;connectable=0;fillColor=none;top=0;left=0;bottom=0;right=0;align=center;spacingLeft=6;overflow=hidden;html=1;whiteSpace=wrap;swimlaneLine=1;verticalAlign=middle;fontFamily=Helvetica;fontSize=12;fontStyle=1;labelBackgroundColor=none;strokeColor=#0F8B8D;fontColor=#143642;rounded=1;" parent="PUyNJ7ztPnQwRcglCfCV-4" vertex="1">
          <mxGeometry x="60" width="120" height="30" as="geometry">
            <mxRectangle width="120" height="30" as="alternateBounds" />
          </mxGeometry>
        </mxCell>
        <mxCell id="PUyNJ7ztPnQwRcglCfCV-7" value="" style="shape=tableRow;horizontal=0;startSize=0;swimlaneHead=0;swimlaneBody=0;fillColor=none;collapsible=0;dropTarget=0;points=[[0,0.5],[1,0.5]];portConstraint=eastwest;top=0;left=0;right=0;bottom=0;html=1;swimlaneLine=1;align=center;verticalAlign=middle;fontFamily=Helvetica;fontSize=12;fontStyle=1;labelBackgroundColor=none;strokeColor=#0F8B8D;fontColor=#143642;rounded=1;" parent="PUyNJ7ztPnQwRcglCfCV-0" vertex="1">
          <mxGeometry y="90" width="180" height="30" as="geometry" />
        </mxCell>
        <mxCell id="PUyNJ7ztPnQwRcglCfCV-8" value="" style="shape=partialRectangle;connectable=0;fillColor=none;top=0;left=0;bottom=0;right=0;editable=1;overflow=hidden;html=1;whiteSpace=wrap;swimlaneLine=1;align=center;verticalAlign=middle;fontFamily=Helvetica;fontSize=12;fontStyle=1;labelBackgroundColor=none;strokeColor=#0F8B8D;fontColor=#143642;rounded=1;" parent="PUyNJ7ztPnQwRcglCfCV-7" vertex="1">
          <mxGeometry width="60" height="30" as="geometry">
            <mxRectangle width="60" height="30" as="alternateBounds" />
          </mxGeometry>
        </mxCell>
        <mxCell id="PUyNJ7ztPnQwRcglCfCV-9" value="" style="shape=partialRectangle;connectable=0;fillColor=none;top=0;left=0;bottom=0;right=0;align=center;spacingLeft=6;overflow=hidden;html=1;whiteSpace=wrap;swimlaneLine=1;verticalAlign=middle;fontFamily=Helvetica;fontSize=12;fontStyle=1;labelBackgroundColor=none;strokeColor=#0F8B8D;fontColor=#143642;rounded=1;" parent="PUyNJ7ztPnQwRcglCfCV-7" vertex="1">
          <mxGeometry x="60" width="120" height="30" as="geometry">
            <mxRectangle width="120" height="30" as="alternateBounds" />
          </mxGeometry>
        </mxCell>
        <mxCell id="PUyNJ7ztPnQwRcglCfCV-10" value="" style="edgeStyle=entityRelationEdgeStyle;fontSize=12;html=1;endArrow=ERzeroToMany;startArrow=ERmandOne;rounded=1;fontFamily=Helvetica;fontColor=default;fontStyle=1;labelBackgroundColor=none;strokeColor=#A8201A;" parent="WIyWlLk6GJQsqaUBKTNV-1" source="PUyNJ7ztPnQwRcglCfCV-0" target="PUyNJ7ztPnQwRcglCfCV-11" edge="1">
          <mxGeometry width="100" height="100" relative="1" as="geometry">
            <mxPoint x="110" y="510" as="sourcePoint" />
            <mxPoint x="500" y="596" as="targetPoint" />
            <Array as="points">
              <mxPoint x="190" y="710.5" />
            </Array>
          </mxGeometry>
        </mxCell>
        <mxCell id="PUyNJ7ztPnQwRcglCfCV-11" value="QuestionAnswer" style="shape=table;startSize=30;container=1;collapsible=1;childLayout=tableLayout;fixedRows=1;rowLines=0;fontStyle=1;align=center;resizeLast=1;html=1;whiteSpace=wrap;swimlaneLine=1;verticalAlign=middle;fontFamily=Helvetica;fontSize=12;fillColor=none;rounded=1;labelBackgroundColor=none;strokeColor=#0F8B8D;fontColor=#143642;" parent="WIyWlLk6GJQsqaUBKTNV-1" vertex="1">
          <mxGeometry x="270" y="430" width="200" height="180" as="geometry" />
        </mxCell>
        <mxCell id="PUyNJ7ztPnQwRcglCfCV-12" value="" style="shape=tableRow;horizontal=0;startSize=0;swimlaneHead=0;swimlaneBody=0;fillColor=none;collapsible=0;dropTarget=0;points=[[0,0.5],[1,0.5]];portConstraint=eastwest;top=0;left=0;right=0;bottom=1;html=1;swimlaneLine=1;align=center;verticalAlign=middle;fontFamily=Helvetica;fontSize=12;fontStyle=1;labelBackgroundColor=none;strokeColor=#0F8B8D;fontColor=#143642;rounded=1;" parent="PUyNJ7ztPnQwRcglCfCV-11" vertex="1">
          <mxGeometry y="30" width="200" height="30" as="geometry" />
        </mxCell>
        <mxCell id="PUyNJ7ztPnQwRcglCfCV-13" value="PK,FK1" style="shape=partialRectangle;connectable=0;fillColor=none;top=0;left=0;bottom=0;right=0;fontStyle=1;overflow=hidden;html=1;whiteSpace=wrap;swimlaneLine=1;align=center;verticalAlign=middle;fontFamily=Helvetica;fontSize=12;labelBackgroundColor=none;strokeColor=#0F8B8D;fontColor=#143642;rounded=1;" parent="PUyNJ7ztPnQwRcglCfCV-12" vertex="1">
          <mxGeometry width="60" height="30" as="geometry">
            <mxRectangle width="60" height="30" as="alternateBounds" />
          </mxGeometry>
        </mxCell>
        <mxCell id="PUyNJ7ztPnQwRcglCfCV-14" value="CellId" style="shape=partialRectangle;connectable=0;fillColor=none;top=0;left=0;bottom=0;right=0;align=center;spacingLeft=6;fontStyle=1;overflow=hidden;html=1;whiteSpace=wrap;swimlaneLine=1;verticalAlign=middle;fontFamily=Helvetica;fontSize=12;labelBackgroundColor=none;strokeColor=#0F8B8D;fontColor=#143642;rounded=1;" parent="PUyNJ7ztPnQwRcglCfCV-12" vertex="1">
          <mxGeometry x="60" width="140" height="30" as="geometry">
            <mxRectangle width="140" height="30" as="alternateBounds" />
          </mxGeometry>
        </mxCell>
        <mxCell id="PUyNJ7ztPnQwRcglCfCV-15" value="" style="shape=tableRow;horizontal=0;startSize=0;swimlaneHead=0;swimlaneBody=0;fillColor=none;collapsible=0;dropTarget=0;points=[[0,0.5],[1,0.5]];portConstraint=eastwest;top=0;left=0;right=0;bottom=0;html=1;swimlaneLine=1;align=center;verticalAlign=middle;fontFamily=Helvetica;fontSize=12;fontStyle=1;labelBackgroundColor=none;strokeColor=#0F8B8D;fontColor=#143642;rounded=1;" parent="PUyNJ7ztPnQwRcglCfCV-11" vertex="1">
          <mxGeometry y="60" width="200" height="30" as="geometry" />
        </mxCell>
        <mxCell id="PUyNJ7ztPnQwRcglCfCV-16" value="" style="shape=partialRectangle;connectable=0;fillColor=none;top=0;left=0;bottom=0;right=0;editable=1;overflow=hidden;html=1;whiteSpace=wrap;swimlaneLine=1;align=center;verticalAlign=middle;fontFamily=Helvetica;fontSize=12;fontStyle=1;labelBackgroundColor=none;strokeColor=#0F8B8D;fontColor=#143642;rounded=1;" parent="PUyNJ7ztPnQwRcglCfCV-15" vertex="1">
          <mxGeometry width="60" height="30" as="geometry">
            <mxRectangle width="60" height="30" as="alternateBounds" />
          </mxGeometry>
        </mxCell>
        <mxCell id="PUyNJ7ztPnQwRcglCfCV-17" value="Seq" style="shape=partialRectangle;connectable=0;fillColor=none;top=0;left=0;bottom=0;right=0;align=center;spacingLeft=6;overflow=hidden;html=1;whiteSpace=wrap;swimlaneLine=1;verticalAlign=middle;fontFamily=Helvetica;fontSize=12;fontStyle=1;labelBackgroundColor=none;strokeColor=#0F8B8D;fontColor=#143642;rounded=1;" parent="PUyNJ7ztPnQwRcglCfCV-15" vertex="1">
          <mxGeometry x="60" width="140" height="30" as="geometry">
            <mxRectangle width="140" height="30" as="alternateBounds" />
          </mxGeometry>
        </mxCell>
        <mxCell id="PUyNJ7ztPnQwRcglCfCV-25" value="" style="shape=tableRow;horizontal=0;startSize=0;swimlaneHead=0;swimlaneBody=0;fillColor=none;collapsible=0;dropTarget=0;points=[[0,0.5],[1,0.5]];portConstraint=eastwest;top=0;left=0;right=0;bottom=0;html=1;swimlaneLine=1;align=center;verticalAlign=middle;fontFamily=Helvetica;fontSize=12;fontStyle=1;labelBackgroundColor=none;strokeColor=#0F8B8D;fontColor=#143642;rounded=1;" parent="PUyNJ7ztPnQwRcglCfCV-11" vertex="1">
          <mxGeometry y="90" width="200" height="30" as="geometry" />
        </mxCell>
        <mxCell id="PUyNJ7ztPnQwRcglCfCV-26" value="" style="shape=partialRectangle;connectable=0;fillColor=none;top=0;left=0;bottom=0;right=0;editable=1;overflow=hidden;html=1;whiteSpace=wrap;swimlaneLine=1;align=center;verticalAlign=middle;fontFamily=Helvetica;fontSize=12;fontStyle=1;labelBackgroundColor=none;strokeColor=#0F8B8D;fontColor=#143642;rounded=1;" parent="PUyNJ7ztPnQwRcglCfCV-25" vertex="1">
          <mxGeometry width="60" height="30" as="geometry">
            <mxRectangle width="60" height="30" as="alternateBounds" />
          </mxGeometry>
        </mxCell>
        <mxCell id="PUyNJ7ztPnQwRcglCfCV-27" value="Difficulty" style="shape=partialRectangle;connectable=0;fillColor=none;top=0;left=0;bottom=0;right=0;align=center;spacingLeft=6;overflow=hidden;html=1;whiteSpace=wrap;swimlaneLine=1;verticalAlign=middle;fontFamily=Helvetica;fontSize=12;fontStyle=1;labelBackgroundColor=none;strokeColor=#0F8B8D;fontColor=#143642;rounded=1;" parent="PUyNJ7ztPnQwRcglCfCV-25" vertex="1">
          <mxGeometry x="60" width="140" height="30" as="geometry">
            <mxRectangle width="140" height="30" as="alternateBounds" />
          </mxGeometry>
        </mxCell>
        <mxCell id="PUyNJ7ztPnQwRcglCfCV-28" value="" style="shape=tableRow;horizontal=0;startSize=0;swimlaneHead=0;swimlaneBody=0;fillColor=none;collapsible=0;dropTarget=0;points=[[0,0.5],[1,0.5]];portConstraint=eastwest;top=0;left=0;right=0;bottom=0;html=1;swimlaneLine=1;align=center;verticalAlign=middle;fontFamily=Helvetica;fontSize=12;fontStyle=1;labelBackgroundColor=none;strokeColor=#0F8B8D;fontColor=#143642;rounded=1;" parent="PUyNJ7ztPnQwRcglCfCV-11" vertex="1">
          <mxGeometry y="120" width="200" height="30" as="geometry" />
        </mxCell>
        <mxCell id="PUyNJ7ztPnQwRcglCfCV-29" value="" style="shape=partialRectangle;connectable=0;fillColor=none;top=0;left=0;bottom=0;right=0;editable=1;overflow=hidden;html=1;whiteSpace=wrap;swimlaneLine=1;align=center;verticalAlign=middle;fontFamily=Helvetica;fontSize=12;fontStyle=1;labelBackgroundColor=none;strokeColor=#0F8B8D;fontColor=#143642;rounded=1;" parent="PUyNJ7ztPnQwRcglCfCV-28" vertex="1">
          <mxGeometry width="60" height="30" as="geometry">
            <mxRectangle width="60" height="30" as="alternateBounds" />
          </mxGeometry>
        </mxCell>
        <mxCell id="PUyNJ7ztPnQwRcglCfCV-30" value="..." style="shape=partialRectangle;connectable=0;fillColor=none;top=0;left=0;bottom=0;right=0;align=center;spacingLeft=6;overflow=hidden;html=1;whiteSpace=wrap;swimlaneLine=1;verticalAlign=middle;fontFamily=Helvetica;fontSize=12;fontStyle=1;labelBackgroundColor=none;strokeColor=#0F8B8D;fontColor=#143642;rounded=1;" parent="PUyNJ7ztPnQwRcglCfCV-28" vertex="1">
          <mxGeometry x="60" width="140" height="30" as="geometry">
            <mxRectangle width="140" height="30" as="alternateBounds" />
          </mxGeometry>
        </mxCell>
        <mxCell id="PUyNJ7ztPnQwRcglCfCV-18" value="" style="shape=tableRow;horizontal=0;startSize=0;swimlaneHead=0;swimlaneBody=0;fillColor=none;collapsible=0;dropTarget=0;points=[[0,0.5],[1,0.5]];portConstraint=eastwest;top=0;left=0;right=0;bottom=0;html=1;swimlaneLine=1;align=center;verticalAlign=middle;fontFamily=Helvetica;fontSize=12;fontStyle=1;labelBackgroundColor=none;strokeColor=#0F8B8D;fontColor=#143642;rounded=1;" parent="PUyNJ7ztPnQwRcglCfCV-11" vertex="1">
          <mxGeometry y="150" width="200" height="30" as="geometry" />
        </mxCell>
        <mxCell id="PUyNJ7ztPnQwRcglCfCV-19" value="" style="shape=partialRectangle;connectable=0;fillColor=none;top=0;left=0;bottom=0;right=0;editable=1;overflow=hidden;html=1;whiteSpace=wrap;swimlaneLine=1;align=center;verticalAlign=middle;fontFamily=Helvetica;fontSize=12;fontStyle=1;labelBackgroundColor=none;strokeColor=#0F8B8D;fontColor=#143642;rounded=1;" parent="PUyNJ7ztPnQwRcglCfCV-18" vertex="1">
          <mxGeometry width="60" height="30" as="geometry">
            <mxRectangle width="60" height="30" as="alternateBounds" />
          </mxGeometry>
        </mxCell>
        <mxCell id="PUyNJ7ztPnQwRcglCfCV-20" value="RevisedDifficulty" style="shape=partialRectangle;connectable=0;fillColor=none;top=0;left=0;bottom=0;right=0;align=center;spacingLeft=6;overflow=hidden;html=1;whiteSpace=wrap;swimlaneLine=1;verticalAlign=middle;fontFamily=Helvetica;fontSize=12;fontStyle=1;labelBackgroundColor=none;strokeColor=#0F8B8D;fontColor=#143642;rounded=1;" parent="PUyNJ7ztPnQwRcglCfCV-18" vertex="1">
          <mxGeometry x="60" width="140" height="30" as="geometry">
            <mxRectangle width="140" height="30" as="alternateBounds" />
          </mxGeometry>
        </mxCell>
        <mxCell id="PUyNJ7ztPnQwRcglCfCV-21" value="" style="shape=tableRow;horizontal=0;startSize=0;swimlaneHead=0;swimlaneBody=0;fillColor=none;collapsible=0;dropTarget=0;points=[[0,0.5],[1,0.5]];portConstraint=eastwest;top=0;left=0;right=0;bottom=0;html=1;swimlaneLine=1;align=center;verticalAlign=middle;fontFamily=Helvetica;fontSize=12;fontStyle=1;labelBackgroundColor=none;strokeColor=#0F8B8D;fontColor=#143642;rounded=1;" parent="WIyWlLk6GJQsqaUBKTNV-1" vertex="1">
          <mxGeometry x="310" y="530" width="180" height="30" as="geometry" />
        </mxCell>
      </root>
    </mxGraphModel>
  </diagram>
</mxfile>
